# xmcd
#
# Track frame offsets: 
#        150
#        17162
#        33913
#        55038
#        75783
#        90125
#        116661
#        138446
#        150862
#        171864
#        185788
#        197622
#        212095
#        240349
#
# Disc length: 3285 seconds
#
# Revision: 1
# Processed by: cddbd v1.5.2PL0 Copyright (c) Steve Scherf et al.
# Submitted via: ExactAudioCopyFreeDBPlugin 1.0
#
DISCID=9f0cd30e
DTITLE=Dawn Tyler Watson - En Duo
DYEAR=2007
DGENRE=Blues
TTITLE0=I Will Stand by You
TTITLE1=Going to California
TTITLE2=Mama Just Wants to Barrelhouse All Night Long
TTITLE3=Wiggley Fingers
TTITLE4=The Tracks of My Tears
TTITLE5=Cold Shot
TTITLE6=Boozin'
TTITLE7=Trouble in Mind
TTITLE8=Why
TTITLE9=My Old Friend the Blues
TTITLE10=Shine on Harvest Moon
TTITLE11=Homeward Bound
TTITLE12=Come Together
TTITLE13=(Sometimes I Feel Like A) Motherless Child
EXTD=
EXTT0=
EXTT1=
EXTT2=
EXTT3=
EXTT4=
EXTT5=
EXTT6=
EXTT7=
EXTT8=
EXTT9=
EXTT10=
EXTT11=
EXTT12=
EXTT13=
PLAYORDER=
